<svg xmlns="http://www.w3.org/2000/svg" width="192" height="192" viewBox="0 0 192 192" fill="none">
  <defs>
    <linearGradient id="bg" x1="0" y1="192" x2="192" y2="0">
      <stop offset="0%" stop-color="#5B4BD5"/>
      <stop offset="100%" stop-color="#8B7CF7"/>
    </linearGradient>
  </defs>
  <rect width="192" height="192" rx="32" fill="url(#bg)"/>
  <g stroke="#fff" stroke-width="4" stroke-linecap="round" fill="none">
    <line x1="55" y1="48" x2="90" y2="32"/>
    <line x1="90" y1="32" x2="135" y2="55"/>
    <line x1="55" y1="48" x2="42" y2="90"/>
    <line x1="42" y1="90" x2="75" y2="130"/>
    <line x1="75" y1="130" x2="125" y2="148"/>
    <line x1="125" y1="148" x2="150" y2="115"/>
    <line x1="135" y1="55" x2="150" y2="115"/>
    <line x1="90" y1="32" x2="105" y2="82"/>
    <line x1="75" y1="130" x2="105" y2="82"/>
  </g>
  <g fill="#fff">
    <circle cx="55" cy="48" r="6"/>
    <circle cx="90" cy="32" r="6"/>
    <circle cx="135" cy="55" r="6"/>
    <circle cx="42" cy="90" r="6"/>
    <circle cx="105" cy="82" r="6"/>
    <circle cx="150" cy="115" r="6"/>
    <circle cx="75" cy="130" r="6"/>
    <circle cx="125" cy="148" r="6"/>
  </g>
  <g stroke="#fff" stroke-width="3" stroke-linecap="round" fill="none">
    <path d="M30 155 C50 135, 70 115, 90 95 C110 75, 130 55, 160 30"/>
    <path d="M20 160 C40 140, 60 120, 80 100 C100 80, 120 60, 150 35"/>
    <path d="M40 165 C60 145, 80 125, 100 105 C120 85, 140 65, 170 40"/>
    <path d="M25 148 C45 128, 65 108, 85 88 C105 68, 125 48, 155 23"/>
    <path d="M35 152 C55 132, 75 112, 95 92 C115 72, 135 52, 165 27"/>
  </g>
</svg>
