<svg xmlns="http://www.w3.org/2000/svg" viewBox="0 0 512 512" fill="none">
  <defs>
    <linearGradient id="bg" x1="0" y1="512" x2="512" y2="0">
      <stop offset="0%" stop-color="#5B4BD5"/>
      <stop offset="100%" stop-color="#8B7CF7"/>
    </linearGradient>
  </defs>
  <rect width="512" height="512" rx="64" fill="url(#bg)"/>
  <!-- Network nodes and connections -->
  <g stroke="#fff" stroke-width="5" stroke-linecap="round" fill="none">
    <line x1="140" y1="120" x2="230" y2="85"/>
    <line x1="230" y1="85" x2="345" y2="145"/>
    <line x1="140" y1="120" x2="105" y2="225"/>
    <line x1="105" y1="225" x2="195" y2="320"/>
    <line x1="195" y1="320" x2="320" y2="355"/>
    <line x1="320" y1="355" x2="380" y2="275"/>
    <line x1="345" y1="145" x2="380" y2="275"/>
    <line x1="230" y1="85" x2="270" y2="210"/>
    <line x1="195" y1="320" x2="270" y2="210"/>
  </g>
  <!-- Network nodes -->
  <g fill="#fff">
    <circle cx="140" cy="120" r="16"/>
    <circle cx="230" cy="85" r="16"/>
    <circle cx="345" cy="145" r="16"/>
    <circle cx="105" cy="225" r="16"/>
    <circle cx="270" cy="210" r="16"/>
    <circle cx="380" cy="275" r="16"/>
    <circle cx="195" cy="320" r="16"/>
    <circle cx="320" cy="355" r="16"/>
  </g>
  <!-- Wavy lines flowing diagonally -->
  <g stroke="#fff" stroke-width="5" stroke-linecap="round" fill="none">
    <path d="M75 400 C125 355, 175 310, 225 265 C275 220, 325 175, 395 110"/>
    <path d="M55 415 C105 370, 155 325, 205 280 C255 235, 305 190, 375 125"/>
    <path d="M95 430 C145 385, 195 340, 245 295 C295 250, 345 205, 415 140"/>
    <path d="M65 385 C115 340, 165 295, 215 250 C265 205, 315 160, 385 95"/>
    <path d="M85 400 C135 355, 185 310, 235 265 C285 220, 335 175, 405 110"/>
  </g>
  <!-- NETFLOW text -->
  <text x="256" y="475" font-family="Inter, system-ui, sans-serif" font-size="64" font-weight="700" fill="#fff" text-anchor="middle" letter-spacing="6">NETFLOW</text>
</svg>
